<svg width="32" height="32" viewBox="0 0 32 32" fill="none" xmlns="http://www.w3.org/2000/svg">
<g clip-path="url(#clip0_55_41)">
<path d="M10.2632 28C8.57667 28 6.99707 27.3204 5.85705 26.2367C3.64614 24.1354 3.03047 20.468 6.12966 17.523L18.8447 5.43705C20.1334 4.21253 21.773 3.73864 23.3422 4.13906C24.8852 4.53091 26.1479 5.73216 26.5614 7.1979C26.9814 8.69182 26.4844 10.2506 25.197 11.4751L13.0363 23.0346C12.3424 23.6946 11.5572 24.0852 10.7693 24.1636C9.988 24.242 9.2432 24.0044 8.72145 23.5085C7.77709 22.6072 7.64143 20.9162 9.21451 19.4223L17.7555 11.3037C18.1064 10.9706 18.6751 10.9706 19.026 11.3037C19.3769 11.6368 19.3769 12.178 19.026 12.5111L10.4837 20.6309C9.74539 21.3313 9.67756 22.0011 9.99191 22.3011C10.1302 22.4309 10.3389 22.4909 10.5802 22.4652C10.9493 22.4297 11.3706 22.2007 11.7659 21.8272L23.9265 10.269C24.7613 9.47551 25.0809 8.54242 24.8266 7.6424C24.6996 7.20218 24.4536 6.80024 24.1124 6.47561C23.7712 6.15098 23.3463 5.9147 22.8791 5.78971C21.9321 5.54848 20.9486 5.85338 20.1139 6.64687L7.39882 18.7329C5.03008 20.9847 5.59748 23.577 7.12621 25.0305C8.65624 26.484 11.3811 27.0253 13.7511 24.771L26.4661 12.685C26.5491 12.6058 26.6479 12.5429 26.757 12.5C26.8661 12.4571 26.9831 12.435 27.1014 12.435C27.2196 12.435 27.3367 12.4571 27.4458 12.5C27.5548 12.5429 27.6537 12.6058 27.7366 12.685C27.9054 12.8462 28 13.0632 28 13.2893C28 13.5153 27.9054 13.7323 27.7366 13.8936L15.0216 25.9795C13.5229 27.4024 11.8441 28 10.2632 28Z" fill="#293066"/>
</g>
<defs>
<clipPath id="clip0_55_41">
<rect width="32" height="32" fill="white"/>
</clipPath>
</defs>
</svg>
