<svg width="22" height="22" viewBox="0 0 22 22" fill="none" xmlns="http://www.w3.org/2000/svg">
<path d="M11 11H10.25C10.25 11.3228 10.4566 11.6094 10.7628 11.7115L11 11ZM11.75 6C11.75 5.58579 11.4142 5.25 11 5.25C10.5858 5.25 10.25 5.58579 10.25 6H11.75ZM13.7628 12.7115C14.1558 12.8425 14.5805 12.6301 14.7115 12.2372C14.8425 11.8442 14.6301 11.4195 14.2372 11.2885L13.7628 12.7115ZM11.75 11V6H10.25V11H11.75ZM10.7628 11.7115L13.7628 12.7115L14.2372 11.2885L11.2372 10.2885L10.7628 11.7115ZM5 1.75H17V0.25H5V1.75ZM20.25 5V17H21.75V5H20.25ZM17 20.25H5V21.75H17V20.25ZM1.75 17V5H0.25V17H1.75ZM5 20.25C3.20507 20.25 1.75 18.7949 1.75 17H0.25C0.25 19.6234 2.37665 21.75 5 21.75V20.25ZM20.25 17C20.25 18.7949 18.7949 20.25 17 20.25V21.75C19.6234 21.75 21.75 19.6234 21.75 17H20.25ZM17 1.75C18.7949 1.75 20.25 3.20507 20.25 5H21.75C21.75 2.37665 19.6234 0.25 17 0.25V1.75ZM5 0.25C2.37665 0.25 0.25 2.37665 0.25 5H1.75C1.75 3.20507 3.20507 1.75 5 1.75V0.25Z" fill="#28303F"/>
</svg>
