<svg width="32" height="32" viewBox="0 0 32 32" fill="none" xmlns="http://www.w3.org/2000/svg">
<path d="M15.2 4.80005V11.2H4.80005V9.60005C4.80005 8.32701 5.30576 7.10611 6.20594 6.20594C7.10611 5.30576 8.32701 4.80005 9.60005 4.80005H15.2ZM16.8 4.80005V19.2H27.2V9.60005C27.2 8.32701 26.6943 7.10611 25.7942 6.20594C24.894 5.30576 23.6731 4.80005 22.4 4.80005H16.8ZM27.2 20.8H16.8V27.2H22.4C23.6731 27.2 24.894 26.6943 25.7942 25.7942C26.6943 24.894 27.2 23.6731 27.2 22.4V20.8ZM15.2 27.2V12.8H4.80005V22.4C4.80005 23.6731 5.30576 24.894 6.20594 25.7942C7.10611 26.6943 8.32701 27.2 9.60005 27.2H15.2Z" fill="#C8C7CC"/>
</svg>
