<svg width="26" height="17" viewBox="0 0 26 17" fill="none" xmlns="http://www.w3.org/2000/svg">
<path d="M1.40001 0.200195C1.08175 0.200195 0.776528 0.326623 0.551484 0.551667C0.32644 0.776711 0.200012 1.08194 0.200012 1.4002C0.200012 1.71845 0.32644 2.02368 0.551484 2.24872C0.776528 2.47377 1.08175 2.6002 1.40001 2.6002H24.6C24.9183 2.6002 25.2235 2.47377 25.4485 2.24872C25.6736 2.02368 25.8 1.71845 25.8 1.4002C25.8 1.08194 25.6736 0.776711 25.4485 0.551667C25.2235 0.326623 24.9183 0.200195 24.6 0.200195H1.40001ZM1.40001 5.0002C1.08175 5.0002 0.776528 5.12662 0.551484 5.35167C0.32644 5.57671 0.200012 5.88194 0.200012 6.20019C0.200012 6.51845 0.32644 6.82368 0.551484 7.04872C0.776528 7.27377 1.08175 7.4002 1.40001 7.4002H24.6C24.9183 7.4002 25.2235 7.27377 25.4485 7.04872C25.6736 6.82368 25.8 6.51845 25.8 6.20019C25.8 5.88194 25.6736 5.57671 25.4485 5.35167C25.2235 5.12662 24.9183 5.0002 24.6 5.0002H1.40001ZM0.200012 11.0002C0.200012 10.6819 0.32644 10.3767 0.551484 10.1517C0.776528 9.92662 1.08175 9.80019 1.40001 9.80019H24.6C24.9183 9.80019 25.2235 9.92662 25.4485 10.1517C25.6736 10.3767 25.8 10.6819 25.8 11.0002C25.8 11.3185 25.6736 11.6237 25.4485 11.8487C25.2235 12.0738 24.9183 12.2002 24.6 12.2002H1.40001C1.08175 12.2002 0.776528 12.0738 0.551484 11.8487C0.32644 11.6237 0.200012 11.3185 0.200012 11.0002ZM1.40001 14.6002C1.08175 14.6002 0.776528 14.7266 0.551484 14.9517C0.32644 15.1767 0.200012 15.4819 0.200012 15.8002C0.200012 16.1185 0.32644 16.4237 0.551484 16.6487C0.776528 16.8738 1.08175 17.0002 1.40001 17.0002H16.6C16.9183 17.0002 17.2235 16.8738 17.4485 16.6487C17.6736 16.4237 17.8 16.1185 17.8 15.8002C17.8 15.4819 17.6736 15.1767 17.4485 14.9517C17.2235 14.7266 16.9183 14.6002 16.6 14.6002H1.40001Z" fill="#3853A4"/>
</svg>
