<svg width="55" height="55" viewBox="0 0 55 55" fill="none" xmlns="http://www.w3.org/2000/svg">
<path d="M7.33932 19.9381H47.6608M6.61244 34.7216C5.43485 29.9792 5.43485 25.0208 6.61244 20.2784C8.15394 14.0705 13.0764 9.27057 19.3201 7.88704L20.3602 7.65657C25.0631 6.61448 29.937 6.61448 34.6399 7.65657L35.68 7.88704C41.9238 9.27057 46.8462 14.0705 48.3877 20.2784C49.5653 25.0208 49.5653 29.9792 48.3877 34.7216C46.8462 40.9295 41.9238 45.7294 35.68 47.113L34.6399 47.3434C29.937 48.3855 25.0631 48.3855 20.3602 47.3434L19.3201 47.113C13.0764 45.7294 8.15394 40.9296 6.61244 34.7216Z" stroke="#363853" stroke-width="1.5"/>
<path d="M16.0417 27.5L25.2084 27.5" stroke="#363853" stroke-width="1.5" stroke-linecap="round"/>
</svg>
