<svg width="32" height="32" viewBox="0 0 32 32" fill="none" xmlns="http://www.w3.org/2000/svg">
<path d="M15.9999 2.66675C13.5246 2.66675 11.1506 3.65008 9.40028 5.40042C7.64994 7.15076 6.66661 9.52473 6.66661 12.0001V16.7041C6.66681 16.9109 6.61888 17.115 6.52661 17.3001L4.23728 21.8774C4.12545 22.101 4.07264 22.3495 4.08388 22.5993C4.09511 22.8491 4.17002 23.0919 4.30147 23.3045C4.43293 23.5172 4.61658 23.6928 4.83497 23.8145C5.05336 23.9362 5.29925 24.0001 5.54928 24.0001H26.4506C26.7006 24.0001 26.9465 23.9362 27.1649 23.8145C27.3833 23.6928 27.567 23.5172 27.6984 23.3045C27.8299 23.0919 27.9048 22.8491 27.916 22.5993C27.9273 22.3495 27.8744 22.101 27.7626 21.8774L25.4746 17.3001C25.3819 17.1151 25.3335 16.911 25.3333 16.7041V12.0001C25.3333 9.52473 24.3499 7.15076 22.5996 5.40042C20.8493 3.65008 18.4753 2.66675 15.9999 2.66675ZM15.9999 28.0001C15.1724 28.0005 14.3651 27.7443 13.6893 27.2667C13.0135 26.7891 12.5025 26.1136 12.2266 25.3334H19.7733C19.4974 26.1136 18.9864 26.7891 18.3106 27.2667C17.6348 27.7443 16.8275 28.0005 15.9999 28.0001Z" fill="#C8C7CC"/>
</svg>
