<svg width="32" height="32" viewBox="0 0 32 32" fill="none" xmlns="http://www.w3.org/2000/svg">
<path d="M3.20001 10.3999C3.20001 9.33904 3.62144 8.32162 4.37159 7.57148C5.12173 6.82133 6.13915 6.3999 7.20001 6.3999H24.8C25.8609 6.3999 26.8783 6.82133 27.6284 7.57148C28.3786 8.32162 28.8 9.33904 28.8 10.3999V21.5999C28.8 22.6608 28.3786 23.6782 27.6284 24.4283C26.8783 25.1785 25.8609 25.5999 24.8 25.5999H7.20001C6.13915 25.5999 5.12173 25.1785 4.37159 24.4283C3.62144 23.6782 3.20001 22.6608 3.20001 21.5999V10.3999ZM15.2 9.5999H7.20001C6.98784 9.5999 6.78436 9.68419 6.63433 9.83422C6.4843 9.98425 6.40001 10.1877 6.40001 10.3999C6.40001 10.6121 6.4843 10.8156 6.63433 10.9656C6.78436 11.1156 6.98784 11.1999 7.20001 11.1999H15.2C15.4122 11.1999 15.6157 11.1156 15.7657 10.9656C15.9157 10.8156 16 10.6121 16 10.3999C16 10.1877 15.9157 9.98425 15.7657 9.83422C15.6157 9.68419 15.4122 9.5999 15.2 9.5999ZM20 12.7999H7.20001C6.98784 12.7999 6.78436 12.8842 6.63433 13.0342C6.4843 13.1842 6.40001 13.3877 6.40001 13.5999C6.40001 13.8121 6.4843 14.0156 6.63433 14.1656C6.78436 14.3156 6.98784 14.3999 7.20001 14.3999H20C20.2122 14.3999 20.4157 14.3156 20.5657 14.1656C20.7157 14.0156 20.8 13.8121 20.8 13.5999C20.8 13.3877 20.7157 13.1842 20.5657 13.0342C20.4157 12.8842 20.2122 12.7999 20 12.7999ZM8.00001 17.5999C7.57567 17.5999 7.1687 17.7685 6.86864 18.0685C6.56858 18.3686 6.40001 18.7756 6.40001 19.1999V20.7999C6.40001 21.2242 6.56858 21.6312 6.86864 21.9313C7.1687 22.2313 7.57567 22.3999 8.00001 22.3999H14.4C14.8244 22.3999 15.2313 22.2313 15.5314 21.9313C15.8314 21.6312 16 21.2242 16 20.7999V19.1999C16 18.7756 15.8314 18.3686 15.5314 18.0685C15.2313 17.7685 14.8244 17.5999 14.4 17.5999H8.00001Z" fill="#C8C7CC"/>
</svg>
